<!DOCTYPE svg PUBLIC "-//W3C//DTD SVG 1.1//EN" "http://www.w3.org/Graphics/SVG/1.1/DTD/svg11.dtd">
<!-- Uploaded to: SVG Repo, www.svgrepo.com, Transformed by: SVG Repo Mixer Tools -->
<svg fill="#808080" height="800px" width="800px" version="1.1" id="Capa_1" xmlns="http://www.w3.org/2000/svg" xmlns:xlink="http://www.w3.org/1999/xlink" viewBox="0 0 512.002 512.002" xml:space="preserve">
<g id="SVGRepo_bgCarrier" stroke-width="0"/>
<g id="SVGRepo_tracerCarrier" stroke-linecap="round" stroke-linejoin="round"/>
<g id="SVGRepo_iconCarrier"> <g> <g> <path d="M483.155,83.011H336.623c-4.201,0-7.606,3.404-7.606,7.606c0,2.911,1.636,5.436,4.036,6.714 c-27.282,12.637-49.23,34.895-61.462,62.397v-47.873c0-7.518,6.116-13.633,13.633-13.633c4.201,0,7.606-3.404,7.606-7.606 s-3.405-7.606-7.606-7.606c-14.802,0-27.03,11.21-28.656,25.585H152.131V97.761c0-10.605-8.628-19.232-19.233-19.232H86.392 c-10.605,0-19.232,8.627-19.232,19.232v10.835H56.534c-17.016,0-30.859,13.843-30.859,30.86v142.301h-6.443 C8.628,281.756,0,290.383,0,300.988v75.572c0,10.605,8.628,19.233,19.233,19.233h6.443v6.82c0,17.016,13.843,30.86,30.859,30.86 c4.201,0,7.606-3.404,7.606-7.606c0-4.202-3.405-7.606-7.606-7.606c-8.628,0-15.647-7.02-15.647-15.648V139.454 c0-8.628,7.019-15.648,15.647-15.648H256.38v185.98c0,15.905,12.94,28.845,28.845,28.845h184.214v63.981 c0,8.628-7.019,15.648-15.647,15.648H109.645c-4.201,0-7.606,3.404-7.606,7.606c0,4.202,3.405,7.606,7.606,7.606h344.148 c17.015,0,30.859-13.843,30.859-30.86v-64.02c15.213-0.781,27.35-13.403,27.35-28.806V111.855 C512,95.951,499.06,83.011,483.155,83.011z M25.676,380.58h-6.443v0.001c-2.179,0-4.021-1.841-4.021-4.021v-75.572 c0-2.179,1.842-4.021,4.021-4.021h6.443V380.58z M136.919,108.595H82.372V97.761c0-2.178,1.841-4.02,4.02-4.02h46.506 c2.179,0,4.021,1.841,4.021,4.02V108.595z M483.154,98.222c7.518,0,13.634,6.115,13.634,13.633v44.259 c-12.201-25.209-32.683-45.692-57.893-57.892H483.154z M285.224,323.419c-7.517,0.001-13.633-6.115-13.633-13.633v-49.544 c12.488,28.076,35.101,50.689,63.177,63.177H285.224z M276.158,209.985c0-60.031,48.838-108.868,108.868-108.868 c60.03,0,108.868,48.837,108.868,108.868s-48.838,108.868-108.868,108.868S276.158,270.016,276.158,209.985z M496.789,309.786 c-0.001,7.518-6.117,13.634-13.634,13.634h-4.574c-0.496-0.101-1.01-0.155-1.536-0.155s-1.04,0.054-1.536,0.155h-40.225 c26.862-11.948,48.728-33.161,61.505-59.563V309.786z"/> </g> </g> <g> <g> <path d="M385.026,113.511c-53.197,0-96.476,43.279-96.476,96.476s43.279,96.475,96.476,96.475s96.476-43.279,96.476-96.475 S438.223,113.511,385.026,113.511z M385.026,291.249c-44.809,0-81.264-36.455-81.264-81.264s36.455-81.264,81.264-81.264 s81.264,36.455,81.264,81.264S429.835,291.249,385.026,291.249z"/> </g> </g> <g> <g> <path d="M220.247,206.868H118.079c-4.201,0-7.606,3.404-7.606,7.606c0,4.201,3.405,7.606,7.606,7.606h94.562v74.693H87.242 v-82.299c0-4.202-3.405-7.606-7.606-7.606s-7.606,3.404-7.606,7.606v89.905c0,4.202,3.405,7.606,7.606,7.606h140.611 c4.201,0,7.606-3.404,7.606-7.606v-89.905C227.853,210.272,224.448,206.868,220.247,206.868z"/> </g> </g> <g> <g> <path d="M147.168,331.168c-18.084,0-32.797,14.713-32.797,32.797c0,18.084,14.713,32.797,32.797,32.797 c18.084,0,32.797-14.713,32.797-32.797S165.252,331.168,147.168,331.168z M147.167,381.549c-9.696,0-17.585-7.888-17.585-17.585 c0-9.697,7.889-17.585,17.585-17.585s17.585,7.888,17.585,17.585C164.752,373.662,156.863,381.549,147.167,381.549z"/> </g> </g> <g> <g> <path d="M384.189,144.292c-36.684,0-66.528,29.845-66.528,66.528c0,36.683,29.846,66.528,66.528,66.528 c36.684,0,66.528-29.845,66.528-66.528S420.873,144.292,384.189,144.292z M335.888,228.142 c-1.948-5.414-3.016-11.245-3.016-17.321c0.001-28.296,23.022-51.317,51.317-51.317c6.077,0,11.907,1.068,17.321,3.016 L335.888,228.142z M343.504,242.042l71.906-71.906c4.109,3.161,7.725,6.929,10.718,11.169l-71.455,71.455 C350.433,249.766,346.665,246.152,343.504,242.042z M384.189,262.137c-5.256,0-10.329-0.797-15.107-2.273l64.151-64.151 c1.475,4.779,2.273,9.851,2.273,15.107C435.506,239.116,412.485,262.137,384.189,262.137z"/> </g> </g> <g> <g> <path d="M188.299,235.824h-77.025c-4.201,0-7.606,3.404-7.606,7.606v29.631c0,4.201,3.405,7.606,7.606,7.606h77.025 c4.201,0,7.606-3.404,7.606-7.606V243.43C195.905,239.228,192.5,235.824,188.299,235.824z M180.693,265.456H118.88v-14.419h61.813 V265.456z"/> </g> </g> <g> <g> <path d="M216.693,160.392H76.081c-4.201,0-7.606,3.404-7.606,7.606c0,4.202,3.405,7.606,7.606,7.606h140.611 c4.201,0,7.606-3.404,7.606-7.606C224.299,163.797,220.893,160.392,216.693,160.392z"/> </g> </g> </g>
</svg>